<svg xmlns="http://www.w3.org/2000/svg" version="1.1" xmlns:xlink="http://www.w3.org/1999/xlink" xmlns:svgjs="http://svgjs.dev/svgjs" width="1000" height="361" viewBox="0 0 1000 361"><g transform="matrix(1,0,0,1,-0.6060606060606233,0.05772994666600084)"><svg viewBox="0 0 396 143" data-background-color="#ffffff" preserveAspectRatio="xMidYMid meet" height="361" width="1000" xmlns="http://www.w3.org/2000/svg" xmlns:xlink="http://www.w3.org/1999/xlink"><g id="tight-bounds" transform="matrix(1,0,0,1,0.2400000000000091,-0.022868095216722395)"><svg viewBox="0 0 395.52 143.04584738467088" height="143.04584738467088" width="395.52"><g><svg viewBox="0 0 675.849689276336 244.43136" height="143.04584738467088" width="395.52"><g transform="matrix(1,0,0,1,0,69.69750333129475)"><svg viewBox="0 0 395.52000000000004 105.0363533374105" height="105.0363533374105" width="395.52000000000004"><g><svg viewBox="0 0 395.52000000000004 105.0363533374105" height="105.0363533374105" width="395.52000000000004"><g><svg viewBox="0 0 395.52000000000004 60.82503816793894" height="60.82503816793894" width="395.52000000000004"><g transform="matrix(1,0,0,1,0,0)"><svg width="395.52000000000004" viewBox="1.75 -47 314.3699951171875 48.349998474121094" height="60.82503816793894" data-palette-color="#00ff32"><path d="M42.05-41.5Q43.6-41.2 44.38-40.45 45.15-39.7 45.15-38.7L45.15-38.7Q45.15-37.05 44.23-36.3 43.3-35.55 41.3-35.7L41.3-35.7Q36.8-36.05 34.27-36.18 31.75-36.3 27.65-36.35L27.65-36.35Q25.8-27.15 24.25-17.85L24.25-17.85Q23.7-14.45 23.1-9.98 22.5-5.5 22.3-2.75L22.3-2.75Q22.2-1.3 21.1-0.53 20 0.25 18.45 0.25L18.45 0.25Q16.8 0.25 15.9-0.55 15-1.35 15-2.65L15-2.65Q15-3.85 15.38-6.63 15.75-9.4 16.25-12.45L16.25-12.45Q16.8-15.5 17.1-17.75L17.1-17.75Q17.65-21.55 18.35-25.3 19.05-29.05 19.75-32.4L19.75-32.4Q19.9-33.15 20.1-34.13 20.3-35.1 20.55-36.3L20.55-36.3Q15.65-36.15 12.85-35.5 10.05-34.85 8.88-33.68 7.7-32.5 7.7-30.65L7.7-30.65Q7.7-28.95 8.7-27.4L8.7-27.4Q8.9-27.05 8.9-26.65L8.9-26.65Q8.9-25.7 7.78-24.88 6.65-24.05 5.45-24.05L5.45-24.05Q4.6-24.05 4.05-24.55L4.05-24.55Q3.05-25.4 2.4-26.98 1.75-28.55 1.75-30.55L1.75-30.55Q1.75-34.8 4.53-37.38 7.3-39.95 12.98-41.15 18.65-42.35 27.55-42.35L27.55-42.35Q33.05-42.35 36.33-42.15 39.6-41.95 42.05-41.5L42.05-41.5ZM39.3 0.25Q37.4 0.25 36.62-1.75 35.85-3.75 35.85-8.15L35.85-8.15Q35.85-14.65 37.7-20.5L37.7-20.5Q38.15-21.95 39.17-22.63 40.2-23.3 42.05-23.3L42.05-23.3Q43.05-23.3 43.45-23.05 43.85-22.8 43.85-22.1L43.85-22.1Q43.85-21.3 43.1-18.5L43.1-18.5Q42.6-16.5 42.3-15 42-13.5 41.8-11.3L41.8-11.3Q43.45-15.6 45.5-18.3 47.55-21 49.52-22.15 51.5-23.3 53.15-23.3L53.15-23.3Q56.4-23.3 56.4-20.05L56.4-20.05Q56.4-19.4 55.95-16.9L55.95-16.9Q55.55-14.9 55.55-14.4L55.55-14.4Q55.55-12.65 56.8-12.65L56.8-12.65Q58.2-12.65 60.4-14.85L60.4-14.85Q61.05-15.5 61.75-15.5L61.75-15.5Q62.4-15.5 62.77-14.93 63.15-14.35 63.15-13.4L63.15-13.4Q63.15-11.55 62.15-10.5L62.15-10.5Q60.75-9.05 58.87-8.03 57-7 54.9-7L54.9-7Q52.25-7 50.87-8.35 49.5-9.7 49.5-12L49.5-12Q49.5-12.75 49.65-13.5L49.65-13.5Q49.75-14.5 49.75-14.85L49.75-14.85Q49.75-15.65 49.2-15.65L49.2-15.65Q48.45-15.65 47.22-13.98 46-12.3 44.8-9.55 43.6-6.8 42.85-3.75L42.85-3.75Q42.3-1.4 41.57-0.58 40.85 0.25 39.3 0.25L39.3 0.25ZM64.65 0.25Q61.55 0.25 59.7-2 57.85-4.25 57.85-7.9L57.85-7.9Q57.85-11.9 59.7-15.48 61.55-19.05 64.62-21.23 67.7-23.4 71.15-23.4L71.15-23.4Q72.25-23.4 72.62-22.98 73-22.55 73.25-21.45L73.25-21.45Q74.3-21.65 75.45-21.65L75.45-21.65Q77.9-21.65 77.9-19.9L77.9-19.9Q77.9-18.85 77.15-14.9L77.15-14.9Q76-9.15 76-6.9L76-6.9Q76-6.15 76.37-5.7 76.75-5.25 77.34-5.25L77.34-5.25Q78.3-5.25 79.65-6.48 81-7.7 83.3-10.45L83.3-10.45Q83.9-11.15 84.65-11.15L84.65-11.15Q85.3-11.15 85.67-10.55 86.05-9.95 86.05-8.9L86.05-8.9Q86.05-6.9 85.09-5.8L85.09-5.8Q83.05-3.25 80.75-1.5 78.45 0.25 76.3 0.25L76.3 0.25Q74.65 0.25 73.27-0.88 71.9-2 71.2-3.95L71.2-3.95Q68.59 0.25 64.65 0.25L64.65 0.25ZM66.45-4.8Q67.55-4.8 68.55-6.1 69.55-7.4 70-9.55L70-9.55 71.84-18.75Q69.75-18.7 67.97-17.18 66.2-15.65 65.15-13.15 64.09-10.65 64.09-7.85L64.09-7.85Q64.09-6.3 64.72-5.55 65.34-4.8 66.45-4.8L66.45-4.8ZM91.29 1.35Q88.69 1.35 87.32 0.15 85.94-1.05 85.94-2.55L85.94-2.55Q85.94-3.85 86.89-4.8 87.84-5.75 89.69-5.75L89.69-5.75Q90.34-5.75 91.22-5.63 92.09-5.5 92.54-5.45L92.54-5.45Q92.49-6.75 91.97-7.9 91.44-9.05 90.64-10.13 89.84-11.2 89.14-12L89.14-12Q87.59-9.05 86.07-7.1 84.54-5.15 82.74-3.4L82.74-3.4Q81.84-2.5 80.84-2.5L80.84-2.5Q80.04-2.5 79.54-3.08 79.04-3.65 79.04-4.5L79.04-4.5Q79.04-5.5 79.74-6.35L79.74-6.35 80.39-7.15Q83.14-10.55 84.54-12.75L84.54-12.75Q85.39-14.2 86.54-16.63 87.69-19.05 88.79-21.65L88.79-21.65Q89.74-23.85 92.74-23.85L92.74-23.85Q94.14-23.85 94.69-23.6 95.24-23.35 95.24-22.8L95.24-22.8Q95.24-22.5 95.04-21.85 94.84-21.2 94.49-20.55L94.49-20.55Q93.59-18.75 93.59-17.5L93.59-17.5Q93.59-16.75 94.12-15.85 94.64-14.95 95.74-13.6L95.74-13.6Q97.34-11.5 98.17-10.03 98.99-8.55 98.99-6.8L98.99-6.8Q98.99-6.3 98.89-5.4L98.89-5.4Q101.34-6.35 104.64-10.45L104.64-10.45Q105.24-11.15 105.99-11.15L105.99-11.15Q106.64-11.15 107.02-10.55 107.39-9.95 107.39-8.9L107.39-8.9Q107.39-7 106.44-5.8L106.44-5.8Q103.94-2.7 101.67-1.58 99.39-0.45 96.04-0.35L96.04-0.35Q94.04 1.35 91.29 1.35L91.29 1.35ZM131.09-11.15Q131.74-11.15 132.12-10.55 132.49-9.95 132.49-8.9L132.49-8.9Q132.49-6.9 131.54-5.8L131.54-5.8Q129.24-3.15 126.81-1.45 124.39 0.25 121.29 0.25L121.29 0.25Q118.74 0.25 117.44-1.23 116.14-2.7 116.14-5.5L116.14-5.5Q116.14-6.9 116.84-10.5L116.84-10.5Q117.49-13.65 117.49-14.85L117.49-14.85Q117.49-15.65 116.94-15.65L116.94-15.65Q116.29-15.65 115.09-13.98 113.89-12.3 112.69-9.55 111.49-6.8 110.74-3.75L110.74-3.75Q109.79 0.25 106.04 0.25L106.04 0.25Q104.54 0.25 104.06-0.83 103.59-1.9 103.59-4.7L103.59-4.7Q103.59-6.3 103.64-7.25L103.64-7.25 103.69-11.25Q103.69-18.95 105.27-27.3 106.84-35.65 109.91-41.33 112.99-47 117.29-47L117.29-47Q119.59-47 121.02-45.03 122.44-43.05 122.44-39.9L122.44-39.9Q122.44-34.85 119.49-29.43 116.54-24 109.89-16.75L109.89-16.75Q109.74-14.15 109.74-11.4L109.74-11.4Q111.39-15.65 113.41-18.32 115.44-21 117.41-22.15 119.39-23.3 121.04-23.3L121.04-23.3Q124.29-23.3 124.29-20.05L124.29-20.05Q124.29-18.1 123.19-13L123.19-13Q122.24-8.65 122.24-7.25L122.24-7.25Q122.24-5.25 123.69-5.25L123.69-5.25Q124.69-5.25 126.06-6.48 127.44-7.7 129.74-10.45L129.74-10.45Q130.34-11.15 131.09-11.15L131.09-11.15ZM116.24-42.05Q115.34-42.05 114.24-39.48 113.14-36.9 112.11-32.52 111.09-28.15 110.44-23L110.44-23Q113.54-26.65 115.56-30.95 117.59-35.25 117.59-38.75L117.59-38.75Q117.59-40.35 117.24-41.2 116.89-42.05 116.24-42.05L116.24-42.05ZM181.34-41.5Q182.88-41.2 183.66-40.45 184.44-39.7 184.44-38.7L184.44-38.7Q184.44-37.05 183.51-36.3 182.59-35.55 180.59-35.7L180.59-35.7Q176.09-36.05 173.56-36.18 171.03-36.3 166.94-36.35L166.94-36.35Q165.09-27.15 163.53-17.85L163.53-17.85Q162.99-14.45 162.38-9.98 161.78-5.5 161.59-2.75L161.59-2.75Q161.49-1.3 160.38-0.53 159.28 0.25 157.73 0.25L157.73 0.25Q156.09 0.25 155.19-0.55 154.28-1.35 154.28-2.65L154.28-2.65Q154.28-3.85 154.66-6.63 155.03-9.4 155.53-12.45L155.53-12.45Q156.09-15.5 156.38-17.75L156.38-17.75Q156.94-21.55 157.63-25.3 158.34-29.05 159.03-32.4L159.03-32.4Q159.19-33.15 159.38-34.13 159.59-35.1 159.84-36.3L159.84-36.3Q154.94-36.15 152.13-35.5 149.34-34.85 148.16-33.68 146.98-32.5 146.98-30.65L146.98-30.65Q146.98-28.95 147.98-27.4L147.98-27.4Q148.19-27.05 148.19-26.65L148.19-26.65Q148.19-25.7 147.06-24.88 145.94-24.05 144.73-24.05L144.73-24.05Q143.88-24.05 143.34-24.55L143.34-24.55Q142.34-25.4 141.69-26.98 141.03-28.55 141.03-30.55L141.03-30.55Q141.03-34.8 143.81-37.38 146.59-39.95 152.26-41.15 157.94-42.35 166.84-42.35L166.84-42.35Q172.34-42.35 175.61-42.15 178.88-41.95 181.34-41.5L181.34-41.5ZM197.53-15.35Q198.18-15.35 198.53-14.7 198.88-14.05 198.88-13.05L198.88-13.05Q198.88-10.65 197.43-10.2L197.43-10.2Q194.43-9.15 190.83-9L190.83-9Q189.88-4.8 187.08-2.27 184.28 0.25 180.73 0.25L180.73 0.25Q177.73 0.25 175.61-1.2 173.48-2.65 172.38-5.05 171.28-7.45 171.28-10.25L171.28-10.25Q171.28-14.05 172.73-17.03 174.18-20 176.73-21.68 179.28-23.35 182.38-23.35L182.38-23.35Q186.18-23.35 188.51-20.73 190.83-18.1 191.23-14.25L191.23-14.25Q193.58-14.4 196.83-15.25L196.83-15.25Q197.23-15.35 197.53-15.35L197.53-15.35ZM181.13-5.05Q182.73-5.05 183.91-6.35 185.08-7.65 185.48-10.1L185.48-10.1Q183.93-11.15 183.11-12.85 182.28-14.55 182.28-16.45L182.28-16.45Q182.28-17.25 182.43-18.05L182.43-18.05 182.18-18.05Q180.18-18.05 178.86-16.13 177.53-14.2 177.53-10.7L177.53-10.7Q177.53-7.95 178.61-6.5 179.68-5.05 181.13-5.05L181.13-5.05ZM228.08 0.25Q222.13 0.25 217.73-1.93 213.33-4.1 210.98-8.1 208.63-12.1 208.63-17.4L208.63-17.4Q208.63-24.75 211.4-30.45 214.18-36.15 218.93-39.28 223.68-42.4 229.48-42.4L229.48-42.4Q234.88-42.4 237.68-39.63 240.48-36.85 240.48-32.3L240.48-32.3Q240.48-29.25 239.4-27.4 238.33-25.55 236.33-25.55L236.33-25.55Q234.93-25.55 234.13-26.2 233.33-26.85 233.33-28.1L233.33-28.1Q233.33-28.55 233.53-29.75L233.53-29.75Q233.83-31.25 233.83-32.15L233.83-32.15Q233.83-36.7 228.98-36.7L228.98-36.7Q225.68-36.7 222.68-34.55 219.68-32.4 217.83-28.23 215.98-24.05 215.98-18.3L215.98-18.3Q215.98-12.3 219.33-9.03 222.68-5.75 229.23-5.75L229.23-5.75Q232.48-5.75 235.8-6.58 239.13-7.4 243.18-9.1L243.18-9.1Q243.93-9.4 244.43-9.4L244.43-9.4Q245.23-9.4 245.63-8.8 246.03-8.2 246.03-7.25L246.03-7.25Q246.03-4.2 242.73-2.75L242.73-2.75Q239.18-1.2 235.35-0.48 231.53 0.25 228.08 0.25L228.08 0.25ZM248.28 0.25Q245.18 0.25 243.33-2 241.48-4.25 241.48-7.9L241.48-7.9Q241.48-11.9 243.33-15.48 245.18-19.05 248.25-21.23 251.33-23.4 254.78-23.4L254.78-23.4Q255.88-23.4 256.25-22.98 256.63-22.55 256.88-21.45L256.88-21.45Q257.93-21.65 259.08-21.65L259.08-21.65Q261.53-21.65 261.53-19.9L261.53-19.9Q261.53-18.85 260.78-14.9L260.78-14.9Q259.63-9.15 259.63-6.9L259.63-6.9Q259.63-6.15 260-5.7 260.38-5.25 260.98-5.25L260.98-5.25Q261.93-5.25 263.28-6.48 264.63-7.7 266.93-10.45L266.93-10.45Q267.53-11.15 268.28-11.15L268.28-11.15Q268.93-11.15 269.3-10.55 269.68-9.95 269.68-8.9L269.68-8.9Q269.68-6.9 268.73-5.8L268.73-5.8Q266.68-3.25 264.38-1.5 262.08 0.25 259.93 0.25L259.93 0.25Q258.28 0.25 256.9-0.88 255.53-2 254.83-3.95L254.83-3.95Q252.23 0.25 248.28 0.25L248.28 0.25ZM250.08-4.8Q251.18-4.8 252.18-6.1 253.18-7.4 253.63-9.55L253.63-9.55 255.48-18.75Q253.38-18.7 251.6-17.18 249.83-15.65 248.78-13.15 247.73-10.65 247.73-7.85L247.73-7.85Q247.73-6.3 248.35-5.55 248.98-4.8 250.08-4.8L250.08-4.8ZM274.92 1.35Q272.32 1.35 270.95 0.15 269.57-1.05 269.57-2.55L269.57-2.55Q269.57-3.85 270.52-4.8 271.47-5.75 273.32-5.75L273.32-5.75Q273.97-5.75 274.85-5.63 275.72-5.5 276.17-5.45L276.17-5.45Q276.12-6.75 275.6-7.9 275.07-9.05 274.27-10.13 273.47-11.2 272.77-12L272.77-12Q271.22-9.05 269.7-7.1 268.17-5.15 266.37-3.4L266.37-3.4Q265.47-2.5 264.47-2.5L264.47-2.5Q263.67-2.5 263.17-3.08 262.67-3.65 262.67-4.5L262.67-4.5Q262.67-5.5 263.37-6.35L263.37-6.35 264.02-7.15Q266.77-10.55 268.17-12.75L268.17-12.75Q269.02-14.2 270.17-16.63 271.32-19.05 272.42-21.65L272.42-21.65Q273.37-23.85 276.37-23.85L276.37-23.85Q277.77-23.85 278.32-23.6 278.87-23.35 278.87-22.8L278.87-22.8Q278.87-22.5 278.67-21.85 278.47-21.2 278.12-20.55L278.12-20.55Q277.22-18.75 277.22-17.5L277.22-17.5Q277.22-16.75 277.75-15.85 278.27-14.95 279.37-13.6L279.37-13.6Q280.97-11.5 281.8-10.03 282.62-8.55 282.62-6.8L282.62-6.8Q282.62-6.3 282.52-5.4L282.52-5.4Q284.97-6.35 288.27-10.45L288.27-10.45Q288.87-11.15 289.62-11.15L289.62-11.15Q290.27-11.15 290.65-10.55 291.02-9.95 291.02-8.9L291.02-8.9Q291.02-7 290.07-5.8L290.07-5.8Q287.57-2.7 285.3-1.58 283.02-0.45 279.67-0.35L279.67-0.35Q277.67 1.35 274.92 1.35L274.92 1.35ZM314.72-11.15Q315.37-11.15 315.75-10.55 316.12-9.95 316.12-8.9L316.12-8.9Q316.12-6.9 315.17-5.8L315.17-5.8Q312.87-3.15 310.45-1.45 308.02 0.25 304.92 0.25L304.92 0.25Q302.37 0.25 301.07-1.23 299.77-2.7 299.77-5.5L299.77-5.5Q299.77-6.9 300.47-10.5L300.47-10.5Q301.12-13.65 301.12-14.85L301.12-14.85Q301.12-15.65 300.57-15.65L300.57-15.65Q299.92-15.65 298.72-13.98 297.52-12.3 296.32-9.55 295.12-6.8 294.37-3.75L294.37-3.75Q293.42 0.25 289.67 0.25L289.67 0.25Q288.17 0.25 287.7-0.83 287.22-1.9 287.22-4.7L287.22-4.7Q287.22-6.3 287.27-7.25L287.27-7.25 287.32-11.25Q287.32-18.95 288.9-27.3 290.47-35.65 293.55-41.33 296.62-47 300.92-47L300.92-47Q303.22-47 304.65-45.03 306.07-43.05 306.07-39.9L306.07-39.9Q306.07-34.85 303.12-29.43 300.17-24 293.52-16.75L293.52-16.75Q293.37-14.15 293.37-11.4L293.37-11.4Q295.02-15.65 297.05-18.32 299.07-21 301.05-22.15 303.02-23.3 304.67-23.3L304.67-23.3Q307.92-23.3 307.92-20.05L307.92-20.05Q307.92-18.1 306.82-13L306.82-13Q305.87-8.65 305.87-7.25L305.87-7.25Q305.87-5.25 307.32-5.25L307.32-5.25Q308.32-5.25 309.7-6.48 311.07-7.7 313.37-10.45L313.37-10.45Q313.97-11.15 314.72-11.15L314.72-11.15ZM299.87-42.05Q298.97-42.05 297.87-39.48 296.77-36.9 295.75-32.52 294.72-28.15 294.07-23L294.07-23Q297.17-26.65 299.2-30.95 301.22-35.25 301.22-38.75L301.22-38.75Q301.22-40.35 300.87-41.2 300.52-42.05 299.87-42.05L299.87-42.05Z" opacity="1" transform="matrix(1,0,0,1,0,0)" fill="#00ff32" class="undefined-text-0" data-fill-palette-color="primary" id="text-0"></path></svg></g></svg></g><g transform="matrix(1,0,0,1,163.31020800000005,75.18436987847329)"><svg viewBox="0 0 232.209792 29.8519834589372" height="29.8519834589372" width="232.209792"><g transform="matrix(1,0,0,1,0,0)"><svg width="232.209792" viewBox="2.200000047683716 -36.70000076293945 372.54998779296875 47.900001525878906" height="29.8519834589372" data-palette-color="#d2ecd6"><path d="M3.5 0.25L3.5 0.25Q2.55 0.25 2.2 0.2L2.2 0.2Q2.55-2.7 5.28-14.53 8-26.35 8-29.5L8-29.5Q8-30.1 7.3-31.08 6.6-32.05 5.9-32.7L5.9-32.7 5.25-33.4 5.4-34.2Q12.25-35.5 19.9-35.5L19.9-35.5Q29.1-35.5 29.1-28.25L29.1-28.25Q29.1-24.7 27.33-21.78 25.55-18.85 21.8-17.2L21.8-17.2Q24.6-7.85 26.6-5.1L26.6-5.1Q27.5-3.95 28-3.95L28-3.95Q28.9-3.95 30.8-4.85L30.8-4.85 31.4-5.15 32.55-3.3Q30.7-1.6 28.28-0.5 25.85 0.6 23.73 0.6 21.6 0.6 20.23-1.23 18.85-3.05 17.73-6.6 16.6-10.15 15.45-15.7L15.45-15.7Q13.85-15.6 13-15.6L13-15.6Q10.45-4.65 10.2-0.8L10.2-0.8Q8.05 0.25 3.5 0.25ZM13.75-19L14.95-19Q17.95-19 19.68-21.68 21.4-24.35 21.4-28.05L21.4-28.05Q21.4-30 20.7-31.2 20-32.4 18.6-32.4L18.6-32.4Q18-32.4 17.18-32.23 16.35-32.05 16.35-32L16.35-32Q15.55-26.85 13.75-19L13.75-19ZM32.95-8.65L32.95-8.65Q32.95-14.9 36.72-18.53 40.5-22.15 45.3-22.15L45.3-22.15Q48.25-22.15 50.15-20.7 52.05-19.25 52.05-16.82 52.05-14.4 50.82-12.75 49.6-11.1 47.85-10.2L47.85-10.2Q44.3-8.45 41.35-8L41.35-8 40.15-7.85Q40.5-3.15 44-3.15L44-3.15Q45.2-3.15 46.55-3.75 47.9-4.35 48.65-4.95L48.65-4.95 49.4-5.55 50.6-3.95Q50.2-3.4 49-2.5 47.8-1.6 46.75-1L46.75-1Q43.85 0.6 40.4 0.6 36.95 0.6 34.95-1.85 32.95-4.3 32.95-8.65ZM40.1-10.3Q42.65-10.75 44.15-12.45 45.65-14.15 45.65-16.85 45.65-19.55 44.05-19.55L44.05-19.55Q42.15-19.55 41.12-16.32 40.1-13.1 40.1-10.3L40.1-10.3ZM64.59-19.65L64.59-19.65Q62.6-19.65 61.4-16.32 60.2-13 60.2-9.2L60.2-9.2Q60.2-3.2 63.9-3.2L63.9-3.2Q65.09-3.2 66.45-3.78 67.8-4.35 68.59-4.9L68.59-4.9 69.34-5.5 70.5-3.95Q70.09-3.4 68.9-2.5 67.7-1.6 66.65-1 65.59-0.4 63.95 0.1 62.3 0.6 60.7 0.6L60.7 0.6Q56.8 0.6 54.85-1.95 52.9-4.5 52.9-8.8L52.9-8.8Q52.9-14.75 56.17-18.45 59.45-22.15 64.59-22.15L64.59-22.15Q67.95-22.15 69.92-20.63 71.9-19.1 71.9-16.88 71.9-14.65 70.5-13.05L70.5-13.05Q69.25-13.05 67.59-13.6 65.95-14.15 65.09-14.95L65.09-14.95 65.84-19.35Q65.4-19.65 64.59-19.65ZM79.77 5.4Q78.09 6.4 78.09 7.35 78.09 8.3 79.17 8.3 80.24 8.3 81.59 7.28 82.94 6.25 83.84 3.95L83.84 3.95Q81.44 4.4 79.77 5.4ZM77.34 0.2L77.34 0.2Q73.14 0.2 73.14-4.4L73.14-4.4Q73.14-5.5 74.14-10.75 75.14-16 75.14-19.5L75.14-19.5Q75.14-20.25 74.94-20.9L74.94-20.9Q77.64-21.95 82.34-21.95L82.34-21.95Q82.59-21.25 82.59-19.55 82.59-17.85 81.49-12.5 80.39-7.15 80.39-5.6 80.39-4.05 81.69-4.05L81.69-4.05Q83.24-4.05 85.44-5.6L85.44-5.6Q85.69-8.55 87.44-21.15L87.44-21.15Q89.19-21.85 93.74-21.85L93.74-21.85 94.69-21.85Q93.74-18.1 92.84-11.05 91.94-4 91.39-1.25L91.39-1.25Q90.34 4.25 87.52 7.73 84.69 11.2 80.14 11.2L80.14 11.2Q78.34 11.2 76.87 10.25 75.39 9.3 75.39 7.8L75.39 7.8Q75.39 5.8 77.84 4.15 80.29 2.5 84.44 1.6L84.44 1.6Q84.89-0.6 85.14-2.65L85.14-2.65Q81.09 0.2 77.34 0.2ZM107.29-19.65L107.29-19.65Q105.29-19.65 104.09-16.32 102.89-13 102.89-9.2L102.89-9.2Q102.89-3.2 106.59-3.2L106.59-3.2Q107.79-3.2 109.14-3.78 110.49-4.35 111.29-4.9L111.29-4.9 112.04-5.5 113.19-3.95Q112.79-3.4 111.59-2.5 110.39-1.6 109.34-1 108.29-0.4 106.64 0.1 104.99 0.6 103.39 0.6L103.39 0.6Q99.49 0.6 97.54-1.95 95.59-4.5 95.59-8.8L95.59-8.8Q95.59-14.75 98.87-18.45 102.14-22.15 107.29-22.15L107.29-22.15Q110.64-22.15 112.62-20.63 114.59-19.1 114.59-16.88 114.59-14.65 113.19-13.05L113.19-13.05Q111.94-13.05 110.29-13.6 108.64-14.15 107.79-14.95L107.79-14.95 108.54-19.35Q108.09-19.65 107.29-19.65ZM119.51 0.6Q117.79 0.6 116.66-0.55 115.54-1.7 115.54-3.78 115.54-5.85 118.01-17.03 120.49-28.2 120.49-33.15L120.49-33.15 120.19-35.35Q124.09-36.7 127.49-36.7L127.49-36.7Q127.99-36 127.99-34.25L127.99-34.25Q127.99-30.25 125.46-18.78 122.94-7.3 122.94-5.43 122.94-3.55 123.39-3.55L123.39-3.55 126.89-4.8 127.79-3.05Q126.09-1.7 123.66-0.55 121.24 0.6 119.51 0.6ZM128.74-8.65L128.74-8.65Q128.74-14.9 132.51-18.53 136.29-22.15 141.09-22.15L141.09-22.15Q144.04-22.15 145.94-20.7 147.84-19.25 147.84-16.82 147.84-14.4 146.61-12.75 145.39-11.1 143.64-10.2L143.64-10.2Q140.09-8.45 137.14-8L137.14-8 135.94-7.85Q136.29-3.15 139.79-3.15L139.79-3.15Q140.99-3.15 142.34-3.75 143.69-4.35 144.44-4.95L144.44-4.95 145.19-5.55 146.39-3.95Q145.99-3.4 144.79-2.5 143.59-1.6 142.54-1L142.54-1Q139.64 0.6 136.19 0.6 132.74 0.6 130.74-1.85 128.74-4.3 128.74-8.65ZM135.89-10.3Q138.44-10.75 139.94-12.45 141.44-14.15 141.44-16.85 141.44-19.55 139.84-19.55L139.84-19.55Q137.94-19.55 136.91-16.32 135.89-13.1 135.89-10.3L135.89-10.3ZM165.71 5.4Q164.03 6.4 164.03 7.35 164.03 8.3 165.11 8.3 166.18 8.3 167.53 7.28 168.88 6.25 169.78 3.95L169.78 3.95Q167.38 4.4 165.71 5.4ZM163.28 0.2L163.28 0.2Q159.08 0.2 159.08-4.4L159.08-4.4Q159.08-5.5 160.08-10.75 161.08-16 161.08-19.5L161.08-19.5Q161.08-20.25 160.88-20.9L160.88-20.9Q163.58-21.95 168.28-21.95L168.28-21.95Q168.53-21.25 168.53-19.55 168.53-17.85 167.43-12.5 166.33-7.15 166.33-5.6 166.33-4.05 167.63-4.05L167.63-4.05Q169.18-4.05 171.38-5.6L171.38-5.6Q171.63-8.55 173.38-21.15L173.38-21.15Q175.13-21.85 179.68-21.85L179.68-21.85 180.63-21.85Q179.68-18.1 178.78-11.05 177.88-4 177.33-1.25L177.33-1.25Q176.28 4.25 173.46 7.73 170.63 11.2 166.08 11.2L166.08 11.2Q164.28 11.2 162.81 10.25 161.33 9.3 161.33 7.8L161.33 7.8Q161.33 5.8 163.78 4.15 166.23 2.5 170.38 1.6L170.38 1.6Q170.83-0.6 171.08-2.65L171.08-2.65Q167.03 0.2 163.28 0.2ZM188.73 0.6L188.73 0.6Q185.28 0.6 183.33-1.83 181.38-4.25 181.38-8.6L181.38-8.6Q181.38-14.15 184.35-18.15 187.33-22.15 192.58-22.15L192.58-22.15 194.38-22.05Q195.23-22.5 196.28-22.5L196.28-22.5Q200.23-22.5 200.23-15.05L200.23-15.05Q202.28-15.15 204.38-15.6L204.38-15.6 205.18-15.8 205.48-13.85Q203.83-13.15 201.03-12.6L201.03-12.6 200.03-12.4Q199.08-7.15 196.18-3.28 193.28 0.6 188.73 0.6ZM191.43-3.7L191.43-3.7Q193.53-3.7 195.2-6.4 196.88-9.1 197.53-12.1L197.53-12.1Q192.18-12.1 192.18-16.1L192.18-16.1Q192.18-17.7 192.83-19.1L192.83-19.1 193.08-19.6Q192.88-19.7 192.58-19.7 192.28-19.7 192.13-19.6L192.13-19.6Q190.88-18.8 189.78-15.85 188.68-12.9 188.68-9.1L188.68-9.1Q188.68-3.7 191.43-3.7ZM202.08-3.78Q202.08-5.9 203.38-11.08 204.68-16.25 204.68-17.43 204.68-18.6 202.88-20.55L202.88-20.55 202.93-21.2Q206.33-21.9 211.88-21.9L211.88-21.9Q212.13-21.25 212.13-19.55 212.13-17.85 210.73-12.3 209.33-6.75 209.33-5.4 209.33-4.05 210.33-4.05L210.33-4.05Q211.78-4.05 213.68-5.1L213.68-5.1Q213.88-6.3 214.68-9.7L214.68-9.7Q216.48-17.7 216.48-21.15L216.48-21.15Q218.23-21.85 222.78-21.85L222.78-21.85 223.73-21.85Q223.73-19.5 222.33-12.68 220.93-5.85 220.93-4.67 220.93-3.5 221.43-3.5L221.43-3.5Q221.73-3.5 224.28-4.7L224.28-4.7 225.23-3.1Q220.78 0.6 217.43 0.6L217.43 0.6Q215.83 0.6 214.7-0.3 213.58-1.2 213.43-2.65L213.43-2.65Q209.38 0.65 206.08 0.65L206.08 0.65Q204.33 0.65 203.2-0.5 202.08-1.65 202.08-3.78ZM227.62 0.15L227.62 0.15 227.27 0.15Q227.17-0.25 227.17-1.68 227.17-3.1 228.52-9.35 229.87-15.6 229.87-16.5L229.87-16.5Q229.87-18.05 228.47-19.9L228.47-19.9 228.02-20.5 228.07-21.15Q230.77-21.9 236.72-21.9L236.72-21.9Q237.32-20.6 237.32-18.25L237.32-18.25Q237.87-19.15 239.62-20.65 241.37-22.15 243.22-22.15L243.22-22.15Q245.92-22.15 245.92-17.45L245.92-17.45Q245.67-17.15 245.25-16.68 244.82-16.2 243.55-15.35 242.27-14.5 241.07-14.3L241.07-14.3Q241.02-14.3 240.22-15.65 239.42-17 239.02-17L239.02-17Q237.77-16.55 236.82-15.5L236.82-15.5Q234.52-5.15 234.52-2.1L234.52-2.1Q234.52-1 234.57-0.55L234.57-0.55Q232.82 0.15 227.62 0.15ZM255.92-4.1L255.92-4.1 256.47-17.15Q256.47-18.85 254.67-20.65L254.67-20.65 254.77-21.25Q255.12-21.35 255.44-21.43 255.77-21.5 256.19-21.6 256.62-21.7 257.17-21.8 257.72-21.9 258.32-22L258.32-22Q259.72-22.15 260.94-22.15 262.17-22.15 263.04-21.15 263.92-20.15 263.92-17.98 263.92-15.8 263.24-11.78 262.57-7.75 262.57-5.78 262.57-3.8 263.52-3.8L263.52-3.8Q265.07-3.8 266.92-5.75L266.92-5.75Q266.97-6.55 267.57-10.85 268.17-15.15 268.17-17.1 268.17-19.05 267.87-20.45L267.87-20.45Q271.72-21.9 274.77-21.9L274.77-21.9Q275.42-21.45 275.42-18.98 275.42-16.5 274.57-12.13 273.72-7.75 273.72-5.78 273.72-3.8 274.52-3.8L274.52-3.8Q276.42-3.8 278.67-6.63 280.92-9.45 281.07-11.35L281.07-11.35 277.67-15.15Q277.87-17.3 278.72-19.05 279.57-20.8 280.32-21.5L280.32-21.5 281.02-22.15Q283.17-22.15 284.27-21 285.37-19.85 285.37-18.3L285.37-18.3Q285.37-14.35 283.42-9.95 281.47-5.55 278.17-2.48 274.87 0.6 271.47 0.6L271.47 0.6Q269.77 0.6 268.59-0.38 267.42-1.35 267.02-2.9L267.02-2.9Q263.52 0.6 260.22 0.6L260.22 0.6Q258.02 0.6 256.97-0.78 255.92-2.15 255.92-4.1ZM300.91-20.7L300.91-20.7Q301.01-20.8 301.46-22L301.46-22Q303.81-22 307.76-20.6L307.76-20.6Q306.51-16.45 305.76-11.93 305.01-7.4 305.01-5.48 305.01-3.55 305.41-3.55L305.41-3.55Q305.71-3.55 307.62-4.5L307.62-4.5 308.21-4.8 309.12-3.05Q308.66-2.65 307.94-2.05 307.21-1.45 305.21-0.43 303.21 0.6 301.62 0.6L301.62 0.6Q298.51 0.6 298.01-2.2L298.01-2.2Q294.81 0.6 292.24 0.6 289.66 0.6 287.89-1.4 286.12-3.4 286.12-7.7L286.12-7.7Q286.12-14.4 288.87-18.28 291.62-22.15 295.51-22.15L295.51-22.15Q298.31-22.15 300.91-20.7ZM295.21-3.65L295.21-3.65Q296.41-3.65 297.91-4.6L297.91-4.6Q298.26-11.65 300.26-18.55L300.26-18.55Q298.76-19.2 297.71-19.2L297.71-19.2Q295.91-19.2 294.64-15.68 293.37-12.15 293.37-7.9 293.37-3.65 295.21-3.65ZM324.86-6.55L324.86-6.55Q324.86-3.4 322.09-1.4 319.31 0.6 315.76 0.6 312.21 0.6 310.14-0.9 308.06-2.4 308.06-3.55L308.06-3.55Q308.06-4.25 309.81-5.83 311.56-7.4 312.76-7.75L312.76-7.75Q315.26-5.9 316.86-1.9L316.86-1.9Q318.71-2.05 318.71-3.65L318.71-3.65Q318.71-5.95 314.66-10.18 310.61-14.4 310.61-16.9 310.61-19.4 312.86-20.78 315.11-22.15 318.29-22.15 321.46-22.15 323.06-21.03 324.66-19.9 324.66-17.98 324.66-16.05 321.61-12.65L321.61-12.65Q321.96-12.3 322.51-11.73 323.06-11.15 323.96-9.55 324.86-7.95 324.86-6.55ZM320.06-14.4Q322.16-16.2 322.16-17.95 322.16-19.7 319.76-19.7L319.76-19.7Q318.61-19.7 317.86-19.23 317.11-18.75 317.11-18.15L317.11-18.15Q317.11-17.05 319.31-15.05L319.31-15.05 320.06-14.4ZM337.96-21.55L342.81-21.55Q342.71-20.3 341.96-18.65L341.96-18.65Q340.06-18.85 338.36-18.85L338.36-18.85 337.46-18.85Q335.16-7.7 335.16-4.95L335.16-4.95Q335.16-3.5 335.78-3.5 336.41-3.5 339.11-4.75L339.11-4.75 340.01-3.1Q335.56 0.6 331.76 0.6L331.76 0.6Q330.01 0.6 328.88-0.5 327.76-1.6 327.76-3.43 327.76-5.25 328.18-7.55 328.61-9.85 329.36-13.18 330.11-16.5 330.46-18.55L330.46-18.55Q328.61-18.4 327.71-18.25L327.71-18.25Q327.61-18.85 327.61-19.88 327.61-20.9 327.76-21.55L327.76-21.55 330.91-21.55Q331.31-24.25 331.31-26.65L331.31-26.65 331.26-28.2 331.26-28.35Q335.16-29.7 338.61-29.7L338.61-29.7Q338.81-28.7 338.81-27.2 338.81-25.7 337.96-21.55L337.96-21.55ZM341.71-8.65L341.71-8.65Q341.71-14.9 345.48-18.53 349.26-22.15 354.06-22.15L354.06-22.15Q357.01-22.15 358.91-20.7 360.81-19.25 360.81-16.82 360.81-14.4 359.58-12.75 358.36-11.1 356.61-10.2L356.61-10.2Q353.06-8.45 350.11-8L350.11-8 348.91-7.85Q349.26-3.15 352.76-3.15L352.76-3.15Q353.96-3.15 355.31-3.75 356.66-4.35 357.41-4.95L357.41-4.95 358.16-5.55 359.36-3.95Q358.96-3.4 357.76-2.5 356.56-1.6 355.51-1L355.51-1Q352.61 0.6 349.16 0.6 345.71 0.6 343.71-1.85 341.71-4.3 341.71-8.65ZM348.86-10.3Q351.41-10.75 352.91-12.45 354.41-14.15 354.41-16.85 354.41-19.55 352.81-19.55L352.81-19.55Q350.91-19.55 349.88-16.32 348.86-13.1 348.86-10.3L348.86-10.3ZM374.75-33.2L374.75-33.2Q374.75-28.25 371.5-17.65L371.5-17.65Q371.25-16.8 370.58-14.58 369.9-12.35 369.55-11.15L369.55-11.15Q368.2-10.7 367.18-10.7 366.15-10.7 365.35-10.8L365.35-10.8Q367.15-21.65 367.15-29.95L367.15-29.95 366.85-34.15Q371.1-35.5 374.45-35.5L374.45-35.5Q374.75-35.05 374.75-33.2ZM362.9-0.38Q361.9-1.35 361.9-3 361.9-4.65 363.28-5.9 364.65-7.15 366.45-7.15 368.25-7.15 369.25-6.15 370.25-5.15 370.25-3.53 370.25-1.9 368.83-0.65 367.4 0.6 365.65 0.6 363.9 0.6 362.9-0.38Z" opacity="1" transform="matrix(1,0,0,1,0,0)" fill="#d2ecd6" class="undefined-text-1" data-fill-palette-color="secondary" id="text-1"></path></svg></g></svg></g></svg></g></svg></g><g transform="matrix(1,0,0,1,431.41832927633595,0)"><svg viewBox="0 0 244.43136 244.43136" height="244.43136" width="244.43136"><g><svg viewBox="0 0 244.43136 244.43136" height="244.43136" width="244.43136"><g transform="matrix(1,0,0,1,81.6388313717456,64.60265593644993)"><svg viewBox="0 0 81.15369725650882 115.22604812710016" height="115.22604812710016" width="81.15369725650882"><g><svg xmlns="http://www.w3.org/2000/svg" xmlns:xlink="http://www.w3.org/1999/xlink" version="1.1" x="0" y="0" viewBox="14.78499984741211 0 70.42999267578125 100" enable-background="new 0 0 100 100" xml:space="preserve" height="115.22604812710016" width="81.15369725650882" class="icon-c-0" data-fill-palette-color="accent" id="c-0"><path d="M54.377 8.131h-5.861v0.921h5.861V8.131zM37.629 10.992c-0.908 0.493-1.613 1.095-2.002 1.829h2.002V10.992zM68.064 19.762l-2.209 2.25-0.107 1.144h2.65v-3.393H68.064zM48.133 37.735L36.721 25.699l1.871 21.745L48.133 37.735zM50.389 37.765l10.908 11.489 2.264-24.292h-0.223v-0.388L50.389 37.765zM36.5 23.139l12.766 13.443 7.549-7.683H46.172v-4.02h12.311v2.324l4.855-4.942v-4.307h0.877l0.283-3.04H35.793L36.5 23.139zM67.318 57.975c0.053 0.314 0.08 0.637 0.08 0.966 0 3.197-2.592 5.788-5.789 5.788-2.221 0-4.148-1.249-5.119-3.084H42.334v3.024h-3.725v-3.031c-0.438-0.062-0.855-0.476-0.893-0.911l-0.795-9.244-19.73 20.099-1.18-1.159 20.725-21.09-2.234-25.973L14.785 2.56V0.27l19.498 20.533-0.514-5.972h-2.422v-2.01h2.131c0.035-0.113 0.084-0.245 0.148-0.392 0.709-1.637 2.172-2.808 4.002-3.64V7.46h3.434v0.206c1.789-0.411 3.682-0.635 5.443-0.748V6.121h9.883v4.941h-9.883V8.975c-1.75 0.131-3.684 0.37-5.443 0.789v3.057h23.355c-0.916-2.163-4.48-3.175-8.029-3.634V7.14c3.562 0.441 7.225 1.438 9.064 3.59 0.49-0.625 1.252-1.026 2.107-1.026 1.48 0 2.682 1.2 2.682 2.68s-1.201 2.68-2.682 2.68c-0.367 0-0.719-0.074-1.039-0.209l-0.289 3.099h1.338L85.215 0v2.292L69.838 17.954h0.32v7.008H65.58l-2.445 26.227 18.082 19.043-1.199 1.139L67.318 57.975zM55.82 58.94c0-2.968 2.232-5.413 5.111-5.75l0.164-1.778L49.256 38.92 38.777 49.594l0.863 10.041h16.221C55.834 59.407 55.82 59.176 55.82 58.94zM58.6 58.94c0 1.663 1.348 3.011 3.01 3.011s3.012-1.348 3.012-3.011-1.35-3.011-3.012-3.011S58.6 57.277 58.6 58.94zM59.654 58.94c0-1.08 0.875-1.956 1.955-1.956s1.955 0.876 1.955 1.956c0 1.079-0.875 1.955-1.955 1.955S59.654 60.02 59.654 58.94zM20.461 85.82h58.232V100H20.461V85.82z" fill="#fdfffd" data-fill-palette-color="accent"></path></svg></g></svg></g><path d="M9.074 64.765C9.489 64.138 9.933 63.726 10.406 63.528 10.873 63.327 11.324 63.319 11.76 63.502V63.502C12.483 63.806 12.923 64.229 13.078 64.77 13.241 65.308 13.105 66.002 12.669 66.85V66.85C11.687 68.755 10.937 70.247 10.418 71.328 9.898 72.409 9.253 73.841 8.482 75.624V75.624C12.165 78.125 15.898 80.568 19.68 82.953V82.953C21.062 83.822 22.676 84.797 24.524 85.877 26.37 86.963 27.876 87.802 29.042 88.394V88.394C29.653 88.708 30.03 89.177 30.172 89.8 30.308 90.42 30.233 91.071 29.947 91.751V91.751C29.645 92.469 29.236 92.954 28.719 93.205 28.204 93.451 27.661 93.454 27.091 93.214V93.214C26.57 92.995 25.737 92.547 24.592 91.871 23.447 91.195 22.254 90.469 21.014 89.695V89.695C19.78 88.888 18.699 88.213 17.772 87.672V87.672C16.21 86.734 14.675 85.767 13.167 84.772 11.652 83.774 10.226 82.814 8.889 81.891V81.891C8.592 81.686 8.25 81.452 7.863 81.189 7.47 80.922 7.033 80.623 6.552 80.291V80.291C5.719 82.46 5.186 84.217 4.953 85.562 4.725 86.91 4.762 87.947 5.063 88.673 5.356 89.402 5.907 89.937 6.716 90.277V90.277C7.458 90.589 8.261 90.67 9.125 90.521V90.521C9.315 90.5 9.495 90.525 9.667 90.597V90.597C10.084 90.773 10.37 91.182 10.526 91.825 10.682 92.468 10.648 93.053 10.427 93.58V93.58C10.272 93.948 10.034 94.205 9.713 94.352V94.352C9.153 94.636 8.47 94.775 7.665 94.768 6.859 94.761 6.018 94.574 5.141 94.205V94.205C3.282 93.424 2.047 92.19 1.435 90.503 0.815 88.821 0.766 86.628 1.289 83.924 1.803 81.225 2.879 77.928 4.517 74.033V74.033C5.528 71.629 6.377 69.73 7.063 68.337 7.759 66.94 8.429 65.75 9.074 64.765ZM37.104 75.704C36.589 76.44 35.835 76.688 34.842 76.448 33.858 76.206 32.51 75.486 30.799 74.288V74.288C28.275 72.521 26.129 70.483 24.359 68.172V68.172C23.914 67.601 23.7 67.025 23.717 66.444 23.734 65.863 23.994 65.213 24.498 64.493V64.493C24.769 64.106 25.009 63.868 25.217 63.778 25.422 63.694 25.661 63.748 25.934 63.939V63.939C26.244 64.156 26.841 64.789 27.723 65.837V65.837C28.366 66.579 28.938 67.211 29.441 67.734 29.944 68.256 30.595 68.858 31.394 69.539V69.539C30.171 67.724 29.314 66.053 28.825 64.525 28.33 62.993 28.128 61.686 28.219 60.604 28.31 59.523 28.578 58.663 29.025 58.025V58.025C29.91 56.761 30.985 56.571 32.249 57.456V57.456C32.5 57.632 33.05 58.146 33.898 59V59C34.567 59.703 34.999 60.124 35.195 60.261V60.261C35.871 60.734 36.381 60.726 36.724 60.235V60.235C37.102 59.695 37.162 58.698 36.906 57.243V57.243C36.834 56.812 36.892 56.462 37.079 56.195V56.195C37.258 55.939 37.509 55.818 37.832 55.833 38.158 55.842 38.507 55.977 38.878 56.236V56.236C39.597 56.74 40.026 57.328 40.164 58.001V58.001C40.344 58.939 40.377 59.913 40.264 60.922 40.154 61.925 39.813 62.836 39.241 63.653V63.653C38.52 64.684 37.711 65.283 36.814 65.451 35.916 65.619 35.021 65.39 34.127 64.764V64.764C33.833 64.558 33.562 64.324 33.315 64.062V64.062C32.949 63.749 32.698 63.545 32.562 63.449V63.449C32.251 63.232 32.021 63.229 31.873 63.442V63.442C31.667 63.736 31.725 64.35 32.047 65.282 32.364 66.21 32.892 67.282 33.632 68.499 34.377 69.71 35.24 70.879 36.222 72.005V72.005C36.984 72.854 37.426 73.534 37.549 74.042 37.676 74.545 37.528 75.099 37.104 75.704ZM50.058 59.251C48.994 60.265 47.777 60.685 46.407 60.51 45.036 60.345 43.755 59.637 42.561 58.384V58.384C41.253 57.011 40.332 55.408 39.798 53.574 39.259 51.744 39.163 49.951 39.512 48.195 39.855 46.443 40.62 45.002 41.805 43.873V43.873C42.18 43.516 42.502 43.347 42.77 43.367 43.042 43.393 43.398 43.554 43.838 43.852V43.852C44.135 43.441 44.481 43.047 44.876 42.67V42.67C45.719 41.867 46.425 41.764 46.994 42.362V42.362C47.339 42.723 48.028 43.707 49.062 45.313V45.313C50.553 47.66 51.666 49.219 52.401 49.989V49.989C52.648 50.249 52.908 50.397 53.18 50.432 53.457 50.462 53.699 50.378 53.907 50.181V50.181C54.229 49.874 54.422 49.285 54.486 48.416 54.549 47.557 54.526 46.278 54.416 44.581V44.581C54.394 44.143 54.511 43.802 54.766 43.559V43.559C54.987 43.348 55.262 43.284 55.589 43.367 55.917 43.451 56.253 43.673 56.597 44.034V44.034C57.248 44.718 57.592 45.407 57.627 46.099V46.099C57.754 47.641 57.71 49.09 57.493 50.444 57.277 51.799 56.8 52.828 56.063 53.53V53.53C55.495 54.071 54.791 54.374 53.952 54.439 53.108 54.498 52.247 54.308 51.368 53.868V53.868C51.853 56.162 51.417 57.956 50.058 59.251ZM48.512 55.761C48.888 55.403 49.034 54.837 48.949 54.063 48.873 53.29 48.559 52.459 48.007 51.57V51.57L44.445 45.921C43.74 46.629 43.332 47.537 43.221 48.644 43.11 49.743 43.284 50.896 43.744 52.102 44.2 53.304 44.884 54.384 45.798 55.342V55.342C46.307 55.877 46.792 56.169 47.252 56.218 47.712 56.276 48.132 56.124 48.512 55.761ZM67.357 46.077C66.314 46.73 65.366 46.99 64.514 46.857 63.657 46.719 63.04 46.348 62.662 45.744V45.744C62.337 45.225 62.243 44.656 62.381 44.036 62.524 43.412 62.968 42.867 63.712 42.401V42.401C63.972 42.239 64.295 42.072 64.682 41.9 65.063 41.731 65.351 41.602 65.546 41.512V41.512C65.2 40.998 64.776 40.577 64.272 40.249 63.773 39.917 63.228 39.635 62.634 39.402 62.044 39.175 61.508 38.989 61.025 38.844V38.844C61.14 40.42 61.139 41.791 61.022 42.956 60.898 44.125 60.696 45.288 60.416 46.445V46.445C60.276 47.035 60.005 47.456 59.605 47.707V47.707C59.283 47.908 58.949 47.957 58.601 47.853 58.259 47.745 57.98 47.519 57.765 47.176V47.176C57.514 46.775 57.422 46.315 57.488 45.794V45.794L57.575 45.068C57.825 43.012 57.955 41.364 57.964 40.125V40.125C57.939 39.333 57.852 38.304 57.703 37.039 57.554 35.774 57.376 34.48 57.168 33.158V33.158C56.997 32.032 57.511 31.094 58.712 30.341V30.341C59.276 29.988 59.7 29.793 59.983 29.757 60.272 29.717 60.486 29.807 60.624 30.027V30.027C60.698 30.145 60.774 30.361 60.852 30.673 60.939 30.988 60.993 31.319 61.015 31.666V31.666C61.106 32.614 61.311 33.342 61.629 33.849V33.849C61.816 34.148 62.127 34.413 62.561 34.643 63.002 34.869 63.613 35.118 64.396 35.39V35.39C65.565 35.827 66.501 36.238 67.205 36.621 67.912 37.011 68.484 37.555 68.922 38.254V38.254C69.049 38.457 69.206 38.751 69.393 39.137V39.137C70.134 38.139 70.654 36.4 70.953 33.92V33.92C71.013 33.489 71.195 33.179 71.5 32.988V32.988C71.759 32.826 72.041 32.818 72.345 32.965 72.649 33.112 72.934 33.397 73.199 33.82V33.82C73.676 34.581 73.874 35.324 73.795 36.049V36.049C73.572 37.924 73.145 39.373 72.514 40.397 71.878 41.423 70.901 42.377 69.583 43.257V43.257C69.205 44.444 68.463 45.384 67.358 46.077ZM92.328 24.634C92.614 24.523 92.892 24.568 93.163 24.769 93.434 24.971 93.66 25.304 93.842 25.769V25.769C94.185 26.649 94.241 27.416 94.01 28.07V28.07C93.447 29.632 92.777 31 91.999 32.174 91.225 33.34 90.153 34.189 88.783 34.723V34.723C87.655 35.163 86.676 35.169 85.845 34.743 85.015 34.317 84.359 33.484 83.875 32.244V32.244C83.634 31.624 83.359 30.46 83.051 28.752V28.752C82.798 27.244 82.569 26.223 82.361 25.69V25.69C82.223 25.336 82.033 25.207 81.792 25.301V25.301C81.5 25.415 81.236 25.946 80.999 26.895 80.753 27.841 80.604 29.024 80.55 30.444 80.49 31.867 80.559 33.318 80.757 34.798V34.798C81.024 36.729 80.33 38.017 78.675 38.662V38.662C78.012 38.92 77.481 38.852 77.085 38.457 76.69 38.067 76.252 37.253 75.768 36.013V36.013C75.493 35.306 75.283 34.739 75.137 34.31V34.31L74.141 31.645C72.815 28.241 71.781 24.56 71.038 20.601 70.301 16.639 70.123 13.138 70.502 10.099 70.884 7.065 72.023 5.179 73.92 4.44V4.44C74.937 4.043 75.932 4.159 76.905 4.787 77.875 5.408 78.632 6.417 79.176 7.812V7.812C80.045 10.043 80.294 12.614 79.92 15.523 79.551 18.423 78.521 22.048 76.831 26.398V26.398C77.21 27.572 77.636 28.766 78.11 29.981V29.981C78.109 27.818 78.326 25.973 78.76 24.447 79.197 22.913 79.751 21.722 80.421 20.876 81.097 20.027 81.801 19.46 82.532 19.175V19.175C83.964 18.617 84.961 19.057 85.521 20.495V20.495C85.857 21.357 86.221 23.007 86.615 25.446V25.446C86.942 27.532 87.226 28.885 87.468 29.505V29.505C87.813 30.392 88.308 30.71 88.953 30.458V30.458C89.393 30.287 89.811 29.81 90.206 29.028 90.603 28.252 91.073 27.058 91.617 25.447V25.447C91.763 25.033 92 24.762 92.328 24.634ZM74.511 7.99C74.108 8.147 73.886 8.887 73.845 10.21 73.805 11.539 73.936 13.259 74.237 15.37 74.536 17.474 74.984 19.724 75.582 22.119V22.119C76.321 19.967 76.768 17.768 76.922 15.524 77.079 13.27 76.857 11.371 76.255 9.828V9.828C75.98 9.121 75.691 8.609 75.389 8.291 75.089 7.979 74.796 7.879 74.511 7.99ZM137.489 0.844C138.225 0.999 138.772 1.26 139.13 1.627 139.488 1.987 139.663 2.403 139.653 2.876V2.876C139.636 3.661 139.405 4.225 138.959 4.568 138.519 4.918 137.824 5.047 136.874 4.954V4.954C134.742 4.743 133.078 4.595 131.882 4.51 130.686 4.425 129.117 4.352 127.175 4.291V4.291C126.206 8.637 125.309 13.007 124.485 17.402V17.402C124.185 19.006 123.874 20.866 123.55 22.982 123.219 25.098 122.994 26.807 122.873 28.109V28.109C122.806 28.793 122.509 29.316 121.982 29.678 121.456 30.033 120.823 30.203 120.085 30.187V30.187C119.307 30.171 118.705 29.969 118.281 29.58 117.863 29.192 117.661 28.689 117.673 28.07V28.07C117.685 27.505 117.795 26.566 118.002 25.252 118.209 23.939 118.444 22.563 118.707 21.124V21.124C119.004 19.68 119.233 18.427 119.395 17.365V17.365C119.692 15.568 120.026 13.785 120.395 12.016 120.765 10.24 121.133 8.561 121.499 6.978V6.978C121.58 6.627 121.671 6.223 121.774 5.766 121.877 5.302 121.994 4.785 122.126 4.216V4.216C119.803 4.24 117.973 4.392 116.636 4.67 115.299 4.955 114.349 5.371 113.785 5.918 113.214 6.458 112.92 7.168 112.902 8.046V8.046C112.885 8.85 113.105 9.627 113.562 10.375V10.375C113.651 10.544 113.694 10.721 113.69 10.907V10.907C113.681 11.359 113.406 11.776 112.866 12.158 112.325 12.539 111.769 12.724 111.197 12.712V12.712C110.798 12.703 110.471 12.577 110.217 12.332V12.332C109.746 11.916 109.366 11.332 109.075 10.581 108.785 9.829 108.65 8.978 108.67 8.027V8.027C108.712 6.011 109.404 4.409 110.747 3.219 112.083 2.022 114.104 1.17 116.81 0.661 119.509 0.145 122.971-0.069 127.195 0.019V0.019C129.802 0.074 131.88 0.164 133.428 0.29 134.983 0.422 136.336 0.607 137.489 0.844ZM153.326 23.095C153.625 23.16 153.823 23.36 153.921 23.694 154.018 24.029 154.016 24.43 153.913 24.898V24.898C153.671 26.01 153.192 26.597 152.477 26.659V26.659C150.98 26.843 149.389 26.785 147.704 26.486V26.486C146.837 28.34 145.628 29.71 144.08 30.598 142.524 31.485 140.924 31.749 139.28 31.39V31.39C137.889 31.087 136.776 30.49 135.942 29.6 135.1 28.715 134.546 27.661 134.282 26.439 134.017 25.217 134.027 23.956 134.31 22.656V22.656C134.694 20.894 135.371 19.397 136.342 18.165 137.312 16.933 138.473 16.059 139.824 15.543 141.176 15.028 142.571 14.927 144.007 15.24V15.24C145.769 15.624 147.053 16.541 147.861 17.991 148.675 19.442 148.982 21.078 148.782 22.901V22.901C149.882 23.072 151.229 23.124 152.824 23.057V23.057C153.016 23.051 153.183 23.064 153.326 23.095ZM140.366 27.766C141.107 27.928 141.817 27.766 142.495 27.28 143.165 26.8 143.718 26.011 144.155 24.915V24.915C143.539 24.27 143.129 23.513 142.924 22.644 142.712 21.774 142.702 20.897 142.895 20.013V20.013C142.976 19.642 143.089 19.279 143.235 18.923V18.923L143.069 18.886C142.139 18.684 141.271 18.964 140.465 19.728 139.653 20.484 139.07 21.671 138.717 23.29V23.29C138.439 24.564 138.477 25.594 138.83 26.379 139.178 27.156 139.69 27.619 140.366 27.766ZM175.614 47.11C173.24 45.573 171.46 43.806 170.272 41.809 169.078 39.808 168.53 37.709 168.628 35.514 168.724 33.309 169.453 31.154 170.816 29.048V29.048C172.71 26.121 174.946 23.879 177.524 22.322 180.098 20.77 182.732 19.982 185.426 19.959 188.122 19.944 190.623 20.684 192.93 22.177V22.177C195.08 23.569 196.358 25.177 196.763 27 197.159 28.825 196.769 30.646 195.594 32.461V32.461C194.809 33.673 193.966 34.51 193.064 34.973 192.157 35.432 191.307 35.404 190.514 34.891V34.891C189.955 34.529 189.602 34.114 189.453 33.646 189.301 33.183 189.386 32.703 189.708 32.206V32.206C189.824 32.027 190.076 31.723 190.465 31.293V31.293C190.969 30.771 191.337 30.332 191.568 29.974V29.974C192.74 28.164 192.362 26.636 190.435 25.389V25.389C189.117 24.535 187.586 24.151 185.843 24.235 184.095 24.316 182.313 24.95 180.499 26.138 178.684 27.325 177.036 29.064 175.553 31.354V31.354C174.009 33.739 173.482 36.017 173.971 38.188 174.463 40.353 176.014 42.28 178.622 43.969V43.969C179.913 44.804 181.326 45.485 182.863 46.012 184.397 46.545 186.191 46.993 188.246 47.357V47.357C188.618 47.431 188.905 47.533 189.106 47.663V47.663C189.424 47.87 189.587 48.145 189.593 48.49 189.598 48.826 189.477 49.184 189.231 49.564V49.564C188.443 50.781 187.207 51.253 185.522 50.979V50.979C183.711 50.678 181.949 50.18 180.236 49.483 178.523 48.787 176.983 47.995 175.614 47.11ZM188.837 57.519C187.831 56.447 187.419 55.227 187.604 53.858 187.779 52.489 188.497 51.213 189.758 50.028V50.028C191.14 48.73 192.75 47.821 194.588 47.3 196.422 46.774 198.215 46.691 199.969 47.052 201.718 47.409 203.153 48.183 204.273 49.377V49.377C204.629 49.755 204.795 50.078 204.773 50.345 204.745 50.618 204.581 50.973 204.28 51.41V51.41C204.69 51.71 205.081 52.059 205.455 52.457V52.457C206.252 53.306 206.349 54.012 205.748 54.577V54.577C205.384 54.919 204.395 55.601 202.782 56.623V56.623C200.424 58.098 198.857 59.199 198.081 59.928V59.928C197.819 60.174 197.67 60.433 197.633 60.705 197.601 60.981 197.683 61.224 197.879 61.433V61.433C198.184 61.757 198.771 61.955 199.639 62.025 200.498 62.094 201.777 62.08 203.474 61.983V61.983C203.913 61.964 204.253 62.083 204.494 62.34V62.34C204.704 62.563 204.765 62.838 204.68 63.165 204.594 63.491 204.37 63.825 204.006 64.167V64.167C203.317 64.814 202.626 65.152 201.933 65.182V65.182C200.391 65.298 198.943 65.243 197.589 65.017 196.236 64.791 195.211 64.307 194.514 63.565V63.565C193.977 62.993 193.679 62.286 193.621 61.447 193.567 60.603 193.764 59.743 194.21 58.867V58.867C191.912 59.336 190.121 58.887 188.837 57.519ZM192.338 55.998C192.693 56.376 193.258 56.526 194.032 56.447 194.806 56.377 195.64 56.069 196.532 55.523V55.523L202.207 52.002C201.504 51.292 200.599 50.878 199.492 50.758 198.395 50.639 197.241 50.805 196.031 51.257 194.826 51.704 193.741 52.38 192.776 53.286V53.286C192.237 53.792 191.942 54.275 191.89 54.734 191.829 55.194 191.978 55.615 192.338 55.998ZM201.888 74.913C201.242 73.865 200.989 72.916 201.128 72.064 201.272 71.208 201.648 70.594 202.254 70.22V70.22C202.775 69.899 203.345 69.809 203.964 69.951 204.587 70.099 205.128 70.546 205.589 71.294V71.294C205.75 71.554 205.915 71.879 206.084 72.267 206.249 72.649 206.377 72.938 206.466 73.133V73.133C206.982 72.792 207.406 72.37 207.738 71.868 208.073 71.372 208.359 70.829 208.596 70.237 208.827 69.649 209.017 69.113 209.165 68.631V68.631C207.588 68.736 206.218 68.725 205.053 68.599 203.885 68.467 202.724 68.257 201.569 67.969V67.969C200.98 67.824 200.561 67.551 200.313 67.149V67.149C200.114 66.826 200.068 66.491 200.174 66.144 200.284 65.803 200.512 65.526 200.857 65.313V65.313C201.259 65.065 201.72 64.976 202.24 65.046V65.046L202.966 65.138C205.021 65.403 206.667 65.544 207.906 65.562V65.562C208.698 65.542 209.728 65.462 210.994 65.322 212.26 65.183 213.555 65.013 214.879 64.815V64.815C216.005 64.651 216.94 65.173 217.684 66.379V66.379C218.034 66.945 218.225 67.37 218.26 67.654 218.297 67.944 218.206 68.156 217.985 68.293V68.293C217.866 68.366 217.65 68.44 217.337 68.516 217.022 68.601 216.691 68.653 216.343 68.672V68.672C215.395 68.757 214.665 68.956 214.156 69.27V69.27C213.856 69.456 213.589 69.765 213.356 70.198 213.126 70.636 212.873 71.246 212.596 72.027V72.027C212.15 73.193 211.733 74.126 211.344 74.827 210.95 75.531 210.402 76.1 209.7 76.533V76.533C209.496 76.659 209.201 76.813 208.814 76.997V76.997C209.806 77.745 211.542 78.277 214.02 78.594V78.594C214.449 78.657 214.759 78.842 214.947 79.148V79.148C215.108 79.408 215.114 79.69 214.964 79.993 214.815 80.296 214.528 80.579 214.103 80.841V80.841C213.339 81.312 212.594 81.505 211.87 81.421V81.421C209.997 81.185 208.551 80.747 207.532 80.109 206.51 79.466 205.563 78.482 204.692 77.159V77.159C203.507 76.772 202.573 76.023 201.888 74.913ZM223.152 100.035C223.261 100.321 223.214 100.599 223.011 100.869 222.808 101.139 222.473 101.363 222.007 101.541V101.541C221.124 101.877 220.356 101.928 219.704 101.693V101.693C218.146 101.119 216.783 100.439 215.615 99.653 214.454 98.871 213.612 97.792 213.088 96.419V96.419C212.657 95.287 212.657 94.308 213.089 93.481 213.521 92.654 214.359 92.003 215.603 91.529V91.529C216.224 91.292 217.39 91.025 219.1 90.729V90.729C220.61 90.487 221.633 90.265 222.167 90.061V90.061C222.522 89.925 222.653 89.737 222.56 89.494V89.494C222.449 89.202 221.919 88.934 220.972 88.69 220.028 88.438 218.846 88.28 217.426 88.216 216.004 88.146 214.552 88.205 213.071 88.393V88.393C211.138 88.646 209.855 87.942 209.222 86.282V86.282C208.968 85.617 209.04 85.088 209.438 84.694 209.83 84.302 210.648 83.869 211.891 83.395V83.395C212.6 83.125 213.169 82.918 213.599 82.776V82.776L216.271 81.799C219.684 80.497 223.372 79.489 227.337 78.774 231.303 78.066 234.805 77.912 237.842 78.313 240.873 78.717 242.751 79.869 243.477 81.772V81.772C243.866 82.791 243.743 83.785 243.108 84.754 242.48 85.72 241.466 86.47 240.068 87.003V87.003C237.83 87.857 235.258 88.087 232.351 87.693 229.454 87.302 225.836 86.247 221.498 84.526V84.526C220.322 84.897 219.125 85.314 217.906 85.779V85.779C220.07 85.794 221.913 86.024 223.435 86.469 224.967 86.917 226.153 87.479 226.995 88.155 227.839 88.837 228.401 89.545 228.681 90.279V90.279C229.228 91.715 228.781 92.708 227.339 93.258V93.258C226.475 93.587 224.822 93.94 222.38 94.316V94.316C220.292 94.628 218.937 94.903 218.315 95.14V95.14C217.426 95.479 217.105 95.972 217.352 96.619V96.619C217.52 97.06 217.994 97.481 218.774 97.882 219.547 98.285 220.737 98.763 222.344 99.318V99.318C222.757 99.467 223.027 99.706 223.152 100.035ZM239.922 82.337C239.768 81.933 239.03 81.706 237.707 81.655 236.378 81.606 234.658 81.725 232.545 82.011 230.438 82.295 228.186 82.727 225.786 83.307V83.307C227.933 84.062 230.128 84.524 232.372 84.694 234.624 84.867 236.524 84.659 238.072 84.068V84.068C238.781 83.798 239.295 83.513 239.615 83.213 239.929 82.915 240.031 82.623 239.922 82.337ZM51.407 177.092C51.586 177.9 51.576 178.565 51.376 179.088 51.18 179.617 50.844 179.986 50.368 180.194V180.194C49.576 180.541 48.904 180.574 48.352 180.293 47.798 180.005 47.348 179.367 47.002 178.378V178.378C46.23 176.152 45.606 174.421 45.13 173.184 44.662 171.95 44.011 170.347 43.176 168.374V168.374C38.386 169.411 33.602 170.536 28.824 171.75V171.75C27.082 172.201 25.074 172.749 22.801 173.396 20.536 174.047 18.725 174.614 17.369 175.099V175.099C16.653 175.355 15.993 175.299 15.389 174.932 14.787 174.57 14.324 174.018 13.998 173.274V173.274C13.654 172.488 13.579 171.795 13.774 171.194 13.968 170.593 14.376 170.156 14.998 169.884V169.884C15.571 169.633 16.561 169.308 17.97 168.909 19.376 168.504 20.863 168.1 22.429 167.697V167.697C24.004 167.327 25.361 166.976 26.501 166.644V166.644C28.438 166.108 30.376 165.616 32.314 165.166 34.259 164.714 36.106 164.304 37.856 163.938V163.938C38.248 163.853 38.696 163.759 39.202 163.653 39.712 163.539 40.279 163.418 40.906 163.289V163.289C39.805 160.974 38.806 159.215 37.908 158.01 37.01 156.805 36.157 156.045 35.351 155.73 34.545 155.415 33.697 155.452 32.807 155.842V155.842C31.996 156.197 31.323 156.775 30.788 157.576V157.576C30.666 157.745 30.508 157.873 30.313 157.958V157.958C29.862 158.156 29.321 158.073 28.69 157.71 28.056 157.341 27.614 156.87 27.363 156.298V156.298C27.184 155.889 27.156 155.502 27.279 155.136V155.136C27.479 154.482 27.889 153.834 28.509 153.192 29.12 152.547 29.906 152.013 30.869 151.591V151.591C32.899 150.703 34.823 150.652 36.642 151.438 38.455 152.228 40.243 153.856 42.007 156.324 43.77 158.791 45.584 162.155 47.45 166.415V166.415C48.603 169.048 49.477 171.168 50.071 172.774 50.66 174.383 51.105 175.822 51.407 177.092ZM22.878 192.279C22.298 191.475 22.313 190.603 22.923 189.663 23.538 188.719 24.777 187.575 26.639 186.233V186.233C29.396 184.244 32.298 182.751 35.343 181.753V181.753C36.095 181.498 36.771 181.486 37.372 181.717 37.969 181.942 38.55 182.446 39.115 183.229V183.229C39.422 183.655 39.582 183.991 39.595 184.236 39.617 184.483 39.479 184.713 39.183 184.927V184.927C38.843 185.172 37.964 185.564 36.547 186.101V186.101C35.548 186.502 34.684 186.867 33.953 187.197 33.223 187.526 32.365 187.985 31.378 188.574V188.574C33.699 187.958 35.744 187.673 37.515 187.717 39.286 187.76 40.718 188.024 41.813 188.506 42.905 188.998 43.703 189.591 44.205 190.288V190.288C45.197 191.664 45.005 192.848 43.629 193.84V193.84C43.354 194.039 42.616 194.427 41.417 195.005V195.005C40.449 195.448 39.86 195.746 39.65 195.898V195.898C38.91 196.431 38.731 196.962 39.113 197.491V197.491C39.541 198.085 40.555 198.514 42.157 198.778V198.778C42.631 198.855 42.974 199.041 43.188 199.338V199.338C43.387 199.613 43.421 199.917 43.291 200.248 43.165 200.586 42.902 200.898 42.503 201.186V201.186C41.715 201.754 40.946 201.985 40.196 201.877V201.877C39.153 201.727 38.127 201.413 37.117 200.935 36.114 200.453 35.291 199.767 34.649 198.877V198.877C33.839 197.754 33.51 196.695 33.662 195.7 33.814 194.704 34.378 193.855 35.355 193.15V193.15C35.668 192.924 36.005 192.726 36.366 192.556V192.556C36.824 192.292 37.125 192.107 37.271 192.002V192.002C37.611 191.757 37.697 191.518 37.53 191.286V191.286C37.3 190.968 36.645 190.805 35.565 190.796 34.479 190.792 33.168 190.954 31.633 191.282 30.101 191.615 28.576 192.087 27.056 192.699V192.699C25.891 193.187 25.022 193.404 24.449 193.349 23.876 193.294 23.353 192.938 22.878 192.279ZM38.308 211.243C37.119 210.137 36.572 208.825 36.668 207.305 36.759 205.781 37.454 204.32 38.755 202.922V202.922C40.178 201.392 41.881 200.274 43.866 199.566 45.841 198.859 47.806 198.638 49.76 198.901 51.709 199.16 53.343 199.904 54.664 201.132V201.132C55.087 201.526 55.295 201.869 55.287 202.161 55.274 202.458 55.122 202.862 54.829 203.371V203.371C55.306 203.669 55.764 204.022 56.202 204.43V204.43C57.138 205.3 57.293 206.071 56.667 206.744V206.744C56.296 207.143 55.262 207.967 53.565 209.215V209.215C51.083 211.004 49.441 212.33 48.639 213.192V213.192C48.371 213.48 48.231 213.777 48.219 214.083 48.197 214.39 48.301 214.65 48.53 214.863V214.863C48.895 215.202 49.556 215.376 50.512 215.384 51.463 215.397 52.867 215.285 54.722 215.048V215.048C55.206 214.998 55.588 215.104 55.871 215.367V215.367C56.124 215.602 56.215 215.9 56.143 216.261 56.072 216.621 55.848 217.003 55.472 217.408V217.408C54.76 218.173 54.029 218.597 53.279 218.681V218.681C51.584 218.93 49.985 218.979 48.483 218.826 46.98 218.683 45.817 218.228 44.994 217.462V217.462C44.361 216.873 43.983 216.117 43.86 215.194 43.732 214.276 43.881 213.32 44.307 212.325V212.325C41.818 213.008 39.818 212.648 38.308 211.243ZM42.036 209.3C42.455 209.69 43.088 209.815 43.935 209.676 44.778 209.533 45.669 209.131 46.611 208.471V208.471L52.585 204.173C51.763 203.445 50.741 203.058 49.52 203.013 48.294 202.963 47.038 203.23 45.75 203.813 44.457 204.392 43.313 205.217 42.316 206.289V206.289C41.763 206.883 41.472 207.435 41.444 207.944 41.42 208.458 41.617 208.91 42.036 209.3ZM57.755 227.855C56.597 227.146 55.876 226.337 55.59 225.428 55.304 224.52 55.366 223.731 55.776 223.061V223.061C56.13 222.482 56.648 222.109 57.328 221.941 58.014 221.776 58.769 221.945 59.591 222.449V222.449C59.881 222.626 60.204 222.863 60.561 223.16 60.917 223.456 61.188 223.677 61.373 223.821V223.821C61.705 223.229 61.912 222.603 61.996 221.944 62.076 221.291 62.083 220.617 62.018 219.921 61.956 219.22 61.878 218.595 61.785 218.046V218.046C60.287 218.939 58.934 219.612 57.727 220.067 56.515 220.518 55.266 220.888 53.98 221.177V221.177C53.336 221.337 52.79 221.279 52.342 221.005V221.005C51.985 220.786 51.775 220.478 51.714 220.081 51.649 219.691 51.731 219.308 51.961 218.933V218.933C52.235 218.485 52.645 218.167 53.19 217.978V217.978L53.952 217.707C56.106 216.943 57.794 216.264 59.015 215.671V215.671C59.792 215.257 60.767 214.665 61.942 213.894 63.113 213.129 64.301 212.316 65.507 211.455V211.455C66.525 210.736 67.703 210.787 69.042 211.607V211.607C69.666 211.989 70.067 212.309 70.245 212.567 70.42 212.829 70.432 213.083 70.283 213.327V213.327C70.199 213.463 70.026 213.65 69.764 213.887 69.496 214.121 69.194 214.334 68.858 214.526V214.526C67.971 215.082 67.357 215.639 67.016 216.195V216.195C66.811 216.529 66.701 216.969 66.687 217.515 66.673 218.06 66.729 218.785 66.854 219.688V219.688C66.99 221.059 67.04 222.186 67.006 223.07 66.975 223.949 66.72 224.779 66.24 225.562V225.562C66.105 225.784 65.891 226.082 65.599 226.457V226.457C66.949 226.698 68.921 226.358 71.515 225.435V225.435C71.973 225.286 72.369 225.314 72.704 225.519V225.519C72.993 225.696 73.138 225.969 73.14 226.336 73.146 226.707 73.006 227.128 72.717 227.599V227.599C72.199 228.444 71.564 229.003 70.812 229.276V229.276C68.852 229.979 67.211 230.269 65.89 230.146 64.565 230.029 63.143 229.536 61.623 228.668V228.668C60.27 228.876 58.98 228.606 57.755 227.855ZM93.758 233.593C94.075 233.714 94.271 233.956 94.346 234.32 94.415 234.681 94.351 235.119 94.154 235.635V235.635C93.782 236.611 93.263 237.278 92.599 237.637V237.637C90.978 238.507 89.416 239.129 87.913 239.502 86.415 239.885 84.907 239.786 83.39 239.207V239.207C82.147 238.733 81.346 238.014 80.987 237.051 80.628 236.088 80.71 234.923 81.232 233.555V233.555C81.493 232.871 82.13 231.715 83.143 230.086V230.086C84.046 228.672 84.609 227.673 84.832 227.088V227.088C84.982 226.697 84.923 226.45 84.655 226.348V226.348C84.338 226.227 83.729 226.461 82.828 227.05 81.93 227.647 80.933 228.506 79.837 229.625 78.74 230.745 77.724 231.978 76.791 233.323V233.323C75.577 235.104 74.057 235.645 72.229 234.947V234.947C71.495 234.667 71.111 234.218 71.077 233.6 71.046 232.99 71.292 232.001 71.814 230.633V230.633C72.113 229.85 72.362 229.233 72.563 228.783V228.783L73.721 225.86C75.154 222.105 77.034 218.336 79.362 214.553 81.683 210.767 84.124 207.775 86.687 205.577 89.243 203.376 91.572 202.677 93.673 203.479V203.479C94.798 203.908 95.525 204.737 95.853 205.967 96.179 207.202 96.049 208.588 95.463 210.123V210.123C94.521 212.591 92.824 214.873 90.371 216.971 87.918 219.069 84.394 221.267 79.8 223.565V223.565C79.239 224.811 78.702 226.105 78.189 227.448V227.448C79.79 225.68 81.333 224.332 82.82 223.404 84.307 222.476 85.64 221.913 86.819 221.715 87.996 221.523 88.989 221.582 89.797 221.89V221.89C91.382 222.495 91.872 223.59 91.267 225.175V225.175C90.904 226.126 89.979 227.746 88.493 230.035V230.035C87.216 231.983 86.446 233.299 86.185 233.982V233.982C85.813 234.958 85.981 235.581 86.69 235.852V235.852C87.174 236.037 87.868 235.956 88.769 235.609 89.668 235.269 90.937 234.642 92.574 233.729V233.729C92.997 233.498 93.391 233.453 93.758 233.593ZM91.524 206.814C91.082 206.645 90.355 207.087 89.341 208.139 88.319 209.194 87.152 210.693 85.841 212.635 84.521 214.581 83.223 216.75 81.948 219.14V219.14C84.143 217.941 86.136 216.48 87.926 214.756 89.717 213.032 90.938 211.316 91.59 209.606V209.606C91.887 208.829 92.028 208.199 92.013 207.716 92.004 207.236 91.841 206.935 91.524 206.814ZM138.23 211.276C139.045 211.417 139.657 211.679 140.065 212.063 140.48 212.446 140.693 212.897 140.705 213.415V213.415C140.725 214.28 140.5 214.914 140.031 215.318 139.554 215.721 138.793 215.895 137.747 215.84V215.84C135.394 215.708 133.555 215.627 132.23 215.598 130.912 215.562 129.181 215.555 127.039 215.578V215.578C126.179 220.403 125.402 225.256 124.71 230.137V230.137C124.465 231.919 124.21 233.985 123.944 236.334 123.686 238.676 123.523 240.566 123.457 242.005V242.005C123.421 242.765 123.118 243.354 122.549 243.773 121.986 244.192 121.299 244.411 120.488 244.43V244.43C119.63 244.45 118.96 244.256 118.478 243.847 117.996 243.439 117.747 242.896 117.731 242.218V242.218C117.717 241.592 117.793 240.552 117.959 239.098 118.118 237.643 118.309 236.115 118.532 234.512V234.512C118.788 232.916 118.978 231.527 119.104 230.346V230.346C119.344 228.351 119.625 226.371 119.945 224.407 120.266 222.436 120.589 220.572 120.914 218.814V218.814C120.985 218.42 121.068 217.969 121.163 217.461 121.25 216.946 121.354 216.375 121.472 215.746V215.746C118.913 215.885 116.906 216.141 115.45 216.514 113.995 216.887 112.968 217.387 112.37 218.013 111.773 218.639 111.485 219.438 111.507 220.409V220.409C111.528 221.294 111.807 222.136 112.344 222.935V222.935C112.455 223.112 112.513 223.307 112.518 223.52V223.52C112.529 224.013 112.247 224.482 111.672 224.927 111.09 225.373 110.486 225.604 109.861 225.618V225.618C109.415 225.628 109.046 225.507 108.754 225.254V225.254C108.225 224.821 107.781 224.195 107.423 223.378 107.058 222.568 106.864 221.638 106.839 220.587V220.587C106.788 218.372 107.472 216.572 108.891 215.189 110.31 213.811 112.496 212.776 115.448 212.082 118.4 211.388 122.201 210.988 126.851 210.88V210.88C129.724 210.814 132.017 210.811 133.728 210.871 135.44 210.938 136.941 211.073 138.23 211.276ZM153.147 228.25C153.479 228.178 153.772 228.288 154.026 228.58 154.274 228.873 154.453 229.277 154.565 229.791V229.791C154.831 231.013 154.622 231.821 153.938 232.215V232.215C152.52 233.082 150.9 233.754 149.077 234.233V234.233C149.062 236.483 148.48 238.407 147.33 240.006 146.181 241.61 144.7 242.61 142.886 243.005V243.005C141.351 243.339 139.961 243.253 138.714 242.748 137.467 242.243 136.43 241.437 135.604 240.33 134.778 239.229 134.21 237.964 133.899 236.534V236.534C133.476 234.59 133.467 232.78 133.872 231.106 134.283 229.423 135.048 228.014 136.17 226.878 137.284 225.737 138.63 224.995 140.21 224.651V224.651C142.154 224.228 143.867 224.557 145.348 225.637 146.822 226.719 147.878 228.222 148.515 230.147V230.147C149.694 229.809 151.065 229.241 152.628 228.445V228.445C152.825 228.348 152.998 228.283 153.147 228.25ZM142.303 238.872C143.122 238.694 143.759 238.209 144.213 237.415 144.673 236.621 144.868 235.577 144.798 234.285V234.285C143.888 233.918 143.127 233.348 142.516 232.575 141.911 231.795 141.503 230.92 141.292 229.951V229.951C141.203 229.542 141.149 229.124 141.132 228.699V228.699L140.946 228.74C139.926 228.962 139.184 229.637 138.722 230.766 138.26 231.901 138.224 233.363 138.613 235.151V235.151C138.919 236.555 139.424 237.565 140.13 238.181 140.838 238.803 141.562 239.034 142.303 238.872ZM184.802 225.083C182.179 226.749 179.591 227.719 177.038 227.993 174.49 228.263 172.137 227.847 169.977 226.743 167.818 225.64 165.995 223.917 164.507 221.575V221.575C162.449 218.335 161.232 215.068 160.858 211.774 160.488 208.486 160.911 205.485 162.128 202.773 163.349 200.066 165.24 197.9 167.801 196.273V196.273C170.182 194.76 172.38 194.224 174.393 194.663 176.406 195.103 178.05 196.325 179.323 198.33V198.33C180.179 199.678 180.63 200.908 180.676 202.022 180.716 203.14 180.295 203.979 179.413 204.539V204.539C178.795 204.931 178.219 205.097 177.683 205.035 177.147 204.974 176.704 204.668 176.355 204.117V204.117C176.23 203.921 176.043 203.527 175.794 202.936V202.936C175.508 202.188 175.24 201.617 174.99 201.224V201.224C173.713 199.214 172.004 198.888 169.865 200.247V200.247C168.41 201.171 167.321 202.529 166.599 204.32 165.876 206.111 165.693 208.186 166.049 210.546 166.405 212.905 167.389 215.354 169.002 217.892V217.892C170.682 220.538 172.719 222.113 175.113 222.618 177.507 223.123 180.147 222.459 183.034 220.625V220.625C184.472 219.711 185.809 218.609 187.047 217.319 188.281 216.023 189.552 214.431 190.859 212.544V212.544C191.109 212.204 191.343 211.965 191.562 211.826V211.826C191.916 211.601 192.266 211.564 192.614 211.713 192.955 211.867 193.26 212.154 193.528 212.575V212.575C194.38 213.917 194.283 215.371 193.235 216.935V216.935C192.103 218.616 190.794 220.153 189.307 221.547 187.825 222.937 186.324 224.116 184.802 225.083ZM201.201 212.337C200.082 213.514 198.764 214.046 197.245 213.933 195.723 213.826 194.269 213.114 192.885 211.798V211.798C191.371 210.359 190.272 208.643 189.586 206.65 188.901 204.668 188.701 202.701 188.986 200.75 189.266 198.804 190.027 197.178 191.27 195.871V195.871C191.669 195.451 192.014 195.247 192.306 195.259 192.603 195.275 193.005 195.432 193.511 195.73V195.73C193.815 195.256 194.173 194.802 194.585 194.368V194.368C195.466 193.443 196.238 193.296 196.904 193.929V193.929C197.299 194.305 198.111 195.348 199.34 197.058V197.058C201.102 199.56 202.41 201.216 203.264 202.028V202.028C203.548 202.298 203.843 202.442 204.15 202.457 204.456 202.483 204.717 202.382 204.933 202.155V202.155C205.277 201.794 205.458 201.135 205.476 200.179 205.499 199.228 205.402 197.823 205.186 195.965V195.965C205.141 195.481 205.252 195.1 205.517 194.82V194.82C205.756 194.569 206.055 194.482 206.414 194.558 206.774 194.633 207.154 194.861 207.554 195.242V195.242C208.311 195.962 208.727 196.697 208.803 197.448V197.448C209.034 199.146 209.065 200.745 208.895 202.246 208.735 203.747 208.268 204.904 207.493 205.719V205.719C206.897 206.346 206.137 206.716 205.213 206.829 204.293 206.946 203.339 206.786 202.349 206.35V206.35C203.005 208.847 202.622 210.842 201.201 212.337ZM199.299 208.587C199.693 208.172 199.826 207.541 199.696 206.692 199.562 205.849 199.17 204.952 198.52 204.004V204.004L194.288 197.983C193.551 198.797 193.153 199.814 193.094 201.035 193.031 202.26 193.284 203.519 193.853 204.813 194.418 206.112 195.23 207.266 196.291 208.275V208.275C196.879 208.834 197.428 209.131 197.937 209.165 198.451 209.194 198.905 209.002 199.299 208.587ZM218.026 193.076C217.304 194.225 216.488 194.938 215.576 195.214 214.664 195.49 213.876 195.419 213.211 195.001V195.001C212.636 194.64 212.268 194.119 212.108 193.436 211.95 192.748 212.128 191.996 212.641 191.179V191.179C212.822 190.892 213.062 190.571 213.363 190.218 213.663 189.864 213.887 189.596 214.033 189.413V189.413C213.444 189.075 212.821 188.86 212.163 188.769 211.511 188.682 210.837 188.667 210.14 188.725 209.439 188.779 208.813 188.849 208.263 188.936V188.936C209.139 190.445 209.797 191.805 210.238 193.017 210.676 194.234 211.032 195.487 211.307 196.776V196.776C211.459 197.421 211.396 197.967 211.116 198.412V198.412C210.893 198.767 210.583 198.973 210.186 199.03 209.795 199.09 209.413 199.004 209.041 198.77V198.77C208.596 198.491 208.282 198.077 208.099 197.53V197.53L207.837 196.765C207.097 194.603 206.437 192.908 205.857 191.68V191.68C205.452 190.899 204.87 189.917 204.112 188.734 203.36 187.555 202.561 186.357 201.713 185.142V185.142C201.006 184.116 201.07 182.938 201.905 181.609V181.609C202.294 180.989 202.618 180.591 202.878 180.416 203.142 180.245 203.396 180.235 203.638 180.387V180.387C203.773 180.472 203.958 180.647 204.193 180.912 204.423 181.183 204.633 181.487 204.821 181.825V181.825C205.368 182.719 205.917 183.339 206.47 183.685V183.685C206.802 183.894 207.241 184.009 207.786 184.029 208.331 184.049 209.056 184.002 209.961 183.886V183.886C211.333 183.766 212.461 183.728 213.345 183.772 214.223 183.813 215.05 184.077 215.828 184.565V184.565C216.048 184.703 216.344 184.92 216.715 185.217V185.217C216.972 183.87 216.653 181.894 215.759 179.289V179.289C215.615 178.83 215.648 178.434 215.857 178.102V178.102C216.037 177.814 216.311 177.672 216.678 177.675 217.049 177.672 217.469 177.818 217.936 178.111V178.111C218.776 178.639 219.328 179.28 219.592 180.035V180.035C220.273 182.003 220.545 183.647 220.408 184.967 220.276 186.29 219.767 187.707 218.882 189.217V189.217C219.076 190.572 218.791 191.858 218.026 193.076ZM224.163 157.138C224.288 156.822 224.532 156.629 224.896 156.558 225.258 156.493 225.696 156.562 226.21 156.765V156.765C227.181 157.148 227.843 157.674 228.195 158.342V158.342C229.046 159.972 229.651 161.541 230.007 163.048 230.373 164.551 230.258 166.057 229.662 167.568V167.568C229.174 168.806 228.446 169.599 227.479 169.947 226.512 170.295 225.348 170.2 223.986 169.663V169.663C223.305 169.395 222.156 168.745 220.539 167.713V167.713C219.135 166.795 218.142 166.221 217.56 165.991V165.991C217.17 165.837 216.923 165.893 216.818 166.16V166.16C216.693 166.475 216.92 167.087 217.499 167.995 218.087 168.899 218.934 169.905 220.041 171.015 221.149 172.124 222.37 173.153 223.705 174.101V174.101C225.472 175.335 225.996 176.861 225.279 178.681V178.681C224.99 179.411 224.537 179.79 223.918 179.818 223.308 179.842 222.322 179.585 220.96 179.048V179.048C220.18 178.74 219.566 178.484 219.118 178.278V178.278L216.208 177.088C212.47 175.613 208.722 173.691 204.964 171.322 201.205 168.959 198.24 166.485 196.07 163.898 193.898 161.317 193.225 158.981 194.05 156.889V156.889C194.492 155.769 195.329 155.051 196.562 154.736 197.801 154.424 199.185 154.569 200.713 155.172V155.172C203.171 156.142 205.434 157.864 207.505 160.34 209.575 162.816 211.734 166.364 213.981 170.984V170.984C215.221 171.559 216.509 172.11 217.846 172.637V172.637C216.096 171.017 214.765 169.459 213.853 167.962 212.942 166.465 212.394 165.126 212.209 163.945 212.03 162.766 212.1 161.774 212.417 160.969V160.969C213.04 159.391 214.14 158.913 215.718 159.536V159.536C216.665 159.909 218.275 160.852 220.547 162.363V162.363C222.48 163.662 223.788 164.446 224.468 164.714V164.714C225.44 165.098 226.065 164.937 226.344 164.231V164.231C226.534 163.748 226.461 163.054 226.124 162.149 225.794 161.246 225.181 159.971 224.286 158.323V158.323C224.06 157.898 224.019 157.503 224.163 157.138ZM197.361 159.075C197.188 159.514 197.621 160.247 198.661 161.272 199.705 162.306 201.191 163.49 203.119 164.822 205.05 166.163 207.204 167.485 209.58 168.787V168.787C208.406 166.578 206.966 164.57 205.263 162.76 203.559 160.951 201.856 159.711 200.154 159.039V159.039C199.38 158.734 198.752 158.586 198.269 158.596 197.788 158.6 197.486 158.759 197.361 159.075ZM0.733 128.359C0.733 121.306 6.451 115.588 13.504 115.588 20.558 115.588 26.276 121.306 26.276 128.359 26.276 135.413 20.558 141.131 13.504 141.131 6.451 141.131 0.733 135.413 0.733 128.359ZM214.35 128.359C214.35 121.306 220.068 115.588 227.121 115.588 234.175 115.588 239.893 121.306 239.893 128.359 239.893 135.413 234.175 141.131 227.121 141.131 220.068 141.131 214.35 135.413 214.35 128.359Z" fill="#fdfffd" data-fill-palette-color="accent"></path></svg></g></svg></g></svg></g><defs></defs></svg><rect width="395.52" height="143.04584738467088" fill="none" stroke="none" visibility="hidden"></rect></g></svg></g></svg>